<?xml version="1.0" standalone="no"?><!DOCTYPE svg PUBLIC "-//W3C//DTD SVG 1.1//EN" "http://www.w3.org/Graphics/SVG/1.1/DTD/svg11.dtd"><svg t="1701100737052" class="icon" viewBox="0 0 1024 1024" version="1.1" xmlns="http://www.w3.org/2000/svg" p-id="4012" xmlns:xlink="http://www.w3.org/1999/xlink" width="48" height="48"><path d="M431.624 455.282h329.132c50.729 0 92-41.271 92-92V261.827c0-50.729-41.271-92-92-92H431.624c-50.729 0-92 41.271-92 92v25.985h-68.952c-105.175 0-190.742 85.566-190.742 190.742v60.499c0 105.176 85.566 190.742 190.742 190.742h68.952v20.082c0 50.729 41.271 92 92 92h329.132c50.729 0 92-41.271 92-92V648.422c0-50.729-41.271-92-92-92H431.624c-50.729 0-92 41.271-92 92v25.373h-68.952c-74.297 0-134.742-60.445-134.742-134.742v-60.499c0-74.297 60.445-134.742 134.742-134.742h68.952v19.47c0 50.729 41.271 92 92 92z m-36 193.14c0-19.851 16.149-36 36-36h329.132c19.851 0 36 16.149 36 36v101.455c0 19.851-16.149 36-36 36H431.624c-19.851 0-36-16.149-36-36V648.422z m0-360.61v-25.985c0-19.851 16.149-36 36-36h329.132c19.851 0 36 16.149 36 36v101.455c0 19.851-16.149 36-36 36H431.624c-19.851 0-36-16.149-36-36v-75.47z" p-id="4013"></path></svg>