<svg version="1.1" xmlns="http://www.w3.org/2000/svg" xmlns:xlink="http://www.w3.org/1999/xlink" width="18.25" height="18.25" viewBox="0,0,18.25,18.25"><g transform="translate(-310.875,-170.875)"><g data-paper-data="{&quot;isPaintingLayer&quot;:true}" fill-rule="nonzero" stroke="none" stroke-linecap="butt" stroke-linejoin="miter" stroke-miterlimit="10" stroke-dasharray="" stroke-dashoffset="0" style="mix-blend-mode: normal"><path d="M319.4375,174.61719v2c0,0.34518 -0.27982,0.625 -0.625,0.625h-4.1875c-0.34518,0 -0.625,-0.27982 -0.625,-0.625v-2c0,-0.34518 0.27982,-0.625 0.625,-0.625h4.1875c0.34518,0 0.625,0.27982 0.625,0.625zM326,174.61719v2c0,0.34518 -0.27982,0.625 -0.625,0.625h-4.1875c-0.34518,0 -0.625,-0.27982 -0.625,-0.625v-2c0,-0.34518 0.27982,-0.625 0.625,-0.625h4.1875c0.34518,0 0.625,0.27982 0.625,0.625zM319.4375,178.99219v2c0,0.34518 -0.27982,0.625 -0.625,0.625h-4.1875c-0.34518,0 -0.625,-0.27982 -0.625,-0.625v-2c0,-0.34518 0.27982,-0.625 0.625,-0.625h4.1875c0.34518,0 0.625,0.27982 0.625,0.625zM326,179v2c0,0.34518 -0.27982,0.625 -0.625,0.625h-4.1875c-0.34518,0 -0.625,-0.27982 -0.625,-0.625v-2c0,-0.34518 0.27982,-0.625 0.625,-0.625h4.1875c0.34518,0 0.625,0.27982 0.625,0.625zM319.4375,183.38281v2c0,0.34518 -0.27982,0.625 -0.625,0.625h-4.1875c-0.34518,0 -0.625,-0.27982 -0.625,-0.625v-2c0,-0.34518 0.27982,-0.625 0.625,-0.625h4.1875c0.34518,0 0.625,0.27982 0.625,0.625zM326,183.38281v2c0,0.34518 -0.27982,0.625 -0.625,0.625h-4.1875c-0.34518,0 -0.625,-0.27982 -0.625,-0.625v-2c0,-0.34518 0.27982,-0.625 0.625,-0.625h4.1875c0.34518,0 0.625,0.27982 0.625,0.625z" fill="#ffffff" stroke-width="1"/><path d="M310.875,189.125v-18.25h18.25v18.25z" fill="none" stroke-width="0"/></g></g></svg>