<svg version="1.1" xmlns="http://www.w3.org/2000/svg" xmlns:xlink="http://www.w3.org/1999/xlink" width="505.16259" height="378.47293" viewBox="0,0,505.16259,378.47293"><defs><linearGradient x1="240.00001" y1="-9.23646" x2="240.00001" y2="369.23648" gradientUnits="userSpaceOnUse" id="color-1"><stop offset="0" stop-color="#b4ffcb"/><stop offset="1" stop-color="#66ff94"/></linearGradient></defs><g transform="translate(12.58129,9.23646)"><g data-paper-data="{&quot;isPaintingLayer&quot;:true}" fill-rule="nonzero" stroke-linejoin="miter" stroke-miterlimit="10" stroke-dasharray="" stroke-dashoffset="0" style="mix-blend-mode: normal"><path d="M-12.58129,369.23648v-378.47293h505.16259v378.47293z" fill="url(#color-1)" stroke="none" stroke-width="0" stroke-linecap="butt"/><g><path d="M31.90165,182.62838c0,-55.9748 45.37654,-101.35135 101.35135,-101.35135c55.97481,0 101.35136,45.37654 101.35136,101.35135c0,55.97481 -45.37655,101.35135 -101.35136,101.35135c-55.9748,0 -101.35135,-45.37655 -101.35135,-101.35135z" fill="#48b368" stroke="#48b368" stroke-width="15" stroke-linecap="butt"/><path d="M23.39565,173.37164c0,-55.9748 45.37655,-101.35135 101.35136,-101.35135c55.9748,0 101.35135,45.37654 101.35135,101.35135c0,55.97481 -45.37654,101.35135 -101.35135,101.35135c-55.9748,0 -101.35135,-45.37655 -101.35135,-101.35135z" fill="#beffd2" stroke="#5be284" stroke-width="15" stroke-linecap="butt"/><path d="M126.3972,178.51527l-88.92119,-40.74868c0,0 22.80312,-58.82869 88.80272,-58.04896c0.14695,0.00173 0.11847,98.79764 0.11847,98.79764z" fill="#a7e0b8" stroke="none" stroke-width="0" stroke-linecap="round"/><path d="M81.71835,156.72777l43.52727,20.77557" fill="none" stroke="#48b368" stroke-width="15" stroke-linecap="round"/><path d="M125.24562,177.553v-72.07207" fill="none" stroke="#48b368" stroke-width="15" stroke-linecap="round"/><path d="M69.80691,51.65128l16.69087,4.12775c0,0 -27.71622,12.39497 -41.94796,24.38428c-16.19307,13.64161 -32.36125,37.87427 -32.36125,37.87427" fill="none" stroke="#48b368" stroke-width="5" stroke-linecap="round"/><text transform="translate(23.85816,79.22723) rotate(-39.92903) scale(0.60399,0.60399)" font-size="40" xml:space="preserve" fill="#48b368" fill-rule="nonzero" stroke="none" stroke-width="1" stroke-linecap="butt" stroke-linejoin="miter" stroke-miterlimit="10" stroke-dasharray="" stroke-dashoffset="0" font-family="Sans Serif" font-weight="normal" text-anchor="start" style="mix-blend-mode: normal"><tspan x="0" dy="0">2h</tspan></text><path d="M181.00001,186.9396v-18h24v18z" fill="#ffffff" stroke="none" stroke-width="0" stroke-linecap="butt"/><text transform="translate(182.00001,184.9396) scale(0.5,0.5)" font-size="40" xml:space="preserve" fill="#48b368" fill-rule="nonzero" stroke="none" stroke-width="1" stroke-linecap="butt" stroke-linejoin="miter" stroke-miterlimit="10" stroke-dasharray="" stroke-dashoffset="0" font-family="Sans Serif" font-weight="normal" text-anchor="start" style="mix-blend-mode: normal"><tspan x="0" dy="0">18</tspan></text></g><path d="M274.00001,278.60627v-184h185v184z" fill="#48b368" stroke="#48b368" stroke-width="15" stroke-linecap="butt"/><path d="M265.00001,269.60627v-184h185v184z" fill="#beffd2" stroke="#5be284" stroke-width="15" stroke-linecap="butt"/><text transform="translate(318.00001,121.77917) scale(0.65836,0.65836)" font-size="40" xml:space="preserve" fill="#48b368" fill-rule="nonzero" stroke="none" stroke-width="1" stroke-linecap="butt" stroke-linejoin="miter" stroke-miterlimit="10" stroke-dasharray="" stroke-dashoffset="0" font-family="Sans Serif" font-weight="normal" text-anchor="start" style="mix-blend-mode: normal"><tspan x="0" dy="0">星期一</tspan></text><text transform="translate(297.00001,211.95076) scale(2.53234,2.53234)" font-size="40" xml:space="preserve" fill="#48b368" fill-rule="nonzero" stroke="none" stroke-width="1" stroke-linecap="butt" stroke-linejoin="miter" stroke-miterlimit="10" stroke-dasharray="" stroke-dashoffset="0" font-family="Sans Serif" font-weight="normal" text-anchor="start" style="mix-blend-mode: normal"><tspan x="0" dy="0">18</tspan></text><text transform="translate(276.00001,254.10627) scale(0.63001,0.63001)" font-size="40" xml:space="preserve" fill="#48b368" fill-rule="nonzero" stroke="none" stroke-width="1" stroke-linecap="butt" stroke-linejoin="miter" stroke-miterlimit="10" stroke-dasharray="" stroke-dashoffset="0" font-family="Sans Serif" font-weight="normal" text-anchor="start" style="mix-blend-mode: normal"><tspan x="0" dy="0">2022</tspan></text><text transform="translate(392.33262,254.0583) scale(0.57084,0.57084)" font-size="40" xml:space="preserve" fill="#48b368" fill-rule="nonzero" stroke="none" stroke-width="1" stroke-linecap="butt" stroke-linejoin="miter" stroke-miterlimit="10" stroke-dasharray="" stroke-dashoffset="0" font-family="Sans Serif" font-weight="normal" text-anchor="start" style="mix-blend-mode: normal"><tspan x="0" dy="0">七月</tspan></text></g></g></svg>