<svg xmlns="http://www.w3.org/2000/svg" width="80" height="80" viewBox="0 0 80 80">
  <defs>
    <linearGradient id="bg" x1="0" y1="0" x2="1" y2="1">
      <stop offset="0" stop-color="#6C5CE7"/>
      <stop offset="1" stop-color="#00B4D8"/>
    </linearGradient>
  </defs>
  <rect x="2" y="2" width="76" height="76" rx="17" fill="url(#bg)"/>
  <rect x="16" y="34" width="10" height="30" rx="2.5" fill="#FFFFFF"/>
  <rect x="29" y="34" width="10" height="30" rx="2.5" fill="#FFFFFF"/>
  <rect x="42" y="34" width="10" height="30" rx="2.5" fill="#FFFFFF"/>
  <rect x="55" y="34" width="10" height="30" rx="2.5" fill="#FFFFFF"/>
  <rect x="23" y="34" width="7" height="18" rx="2" fill="#1E2437"/>
  <rect x="36" y="34" width="7" height="18" rx="2" fill="#1E2437"/>
  <rect x="49" y="34" width="7" height="18" rx="2" fill="#1E2437"/>
  <ellipse cx="30" cy="24" rx="7.5" ry="5.5" transform="rotate(-18 30 24)" fill="#FFD166"/>
  <rect x="35" y="8" width="3.5" height="16.5" fill="#FFD166"/>
  <path d="M38.5 8 q10.5 1.5 12 9.5 q-6 -5 -12 -5.3 z" fill="#FFD166"/>
</svg>
