<svg version="1.1" xmlns="http://www.w3.org/2000/svg" xmlns:xlink="http://www.w3.org/1999/xlink" width="66.34222" height="77.95295" viewBox="0,0,66.34222,77.95295"><g transform="translate(-206.82889,-141.02352)"><g data-paper-data="{&quot;isPaintingLayer&quot;:true}" fill-rule="nonzero" stroke="#2d2d2d" stroke-linejoin="miter" stroke-miterlimit="10" stroke-dasharray="" stroke-dashoffset="0" style="mix-blend-mode: normal"><path d="M209.07889,210.03836c0,-15.38782 0,-52.60638 0,-60.75515c0,-3.08543 2.39007,-6.00969 4.8139,-6.00969c6.35409,0 34.99532,0 43.47266,0c1.50192,0 3.32271,1.19429 4.14884,2.23089c1.43438,1.79983 6.06311,7.60789 8.24649,10.34757c0.70915,0.88982 1.16034,2.43089 1.16034,4.12414c0,10.08416 0,45.64644 0,52.49244c0,2.22142 -1.86604,4.25792 -4.93202,4.25792c-12.65207,0 -45.73779,0 -52.4507,0c-2.32488,0 -4.4595,-2.55754 -4.4595,-6.68813z" fill="#69b2d6" stroke-width="4.5" stroke-linecap="butt"/><path d="M218.27407,161.8972c0,-3.83992 0,-18.62368 0,-18.62368h38.08835c0,0 0,14.34719 0,18.26015c0,1.85355 -1.02928,4.09736 -2.74212,4.09736c-7.70853,0 -29.26177,0 -33.1465,0c-1.17547,0 -2.19972,-2.01447 -2.19972,-3.73383z" fill="#f7f7f7" stroke-width="4.5" stroke-linecap="butt"/><path d="M248.41922,162.52779v-7.73162" fill="none" stroke-width="5" stroke-linecap="round"/><path d="M216.13277,203.84663c0,-7.09682 0,-18.95116 0,-22.82764c0,-2.42259 2.23595,-5.1881 4.49472,-5.1881c5.45434,0 28.51415,0 38.01782,0c2.54686,0 4.12016,1.55898 4.12016,3.97755c0,7.26891 0,22.3023 0,26.11343c0,1.72201 -1.64977,3.45874 -4.30743,3.45874c-9.71989,0 -32.92133,0 -38.2051,0c-2.09467,0 -4.12016,-2.26106 -4.12016,-5.53397z" fill="#f7f7f7" stroke-width="4" stroke-linecap="butt"/><path d="M225.4091,187.63542h24.93014" fill="none" stroke-width="4" stroke-linecap="round"/><path d="M225.4091,197.16188h24.93014" fill="none" stroke-width="4" stroke-linecap="round"/></g></g></svg>